<svg viewBox="0 0 27 25" xmlns="http://www.w3.org/2000/svg" xmlns:xlink="http://www.w3.org/1999/xlink"><style>:root&gt;svg{display:none}:root&gt;svg:target{display:block}</style><svg viewBox="0 0 15 15" id="cart-icon" xmlns="http://www.w3.org/2000/svg"><circle fill="#a6a6a6" cx="4.5" cy="13.5" r="1.5"/><circle fill="#a6a6a6" cx="12.5" cy="13.5" r="1.5"/><path fill="#a6a6a6" d="M15 2H4.07l-.422-2H0v2h2.031l1.985 9H15V9H9.441L15 6.951z"/></svg><svg viewBox="0 0 23 23" id="checkbox-off" xmlns="http://www.w3.org/2000/svg"><path fill="#b8b8b8" d="M20 2c.542 0 1 .458 1 1v17c0 .542-.458 1-1 1H3c-.542 0-1-.458-1-1V3c0-.542.458-1 1-1h17m0-2H3C1.35 0 0 1.35 0 3v17c0 1.65 1.35 3 3 3h17c1.65 0 3-1.35 3-3V3c0-1.65-1.35-3-3-3z"/></svg><svg viewBox="0 0 23 23" id="checkbox-off_disable" xmlns="http://www.w3.org/2000/svg"><path fill="#ededed" d="M20 2c.542 0 1 .458 1 1v17c0 .542-.458 1-1 1H3c-.542 0-1-.458-1-1V3c0-.542.458-1 1-1h17m0-2H3C1.35 0 0 1.35 0 3v17c0 1.65 1.35 3 3 3h17c1.65 0 3-1.35 3-3V3c0-1.65-1.35-3-3-3z"/></svg><svg viewBox="0 0 23 23" id="checkbox-off_hover" xmlns="http://www.w3.org/2000/svg"><path fill="#4d4d4d" d="M20 2c.542 0 1 .458 1 1v17c0 .542-.458 1-1 1H3c-.542 0-1-.458-1-1V3c0-.542.458-1 1-1h17m0-2H3C1.35 0 0 1.35 0 3v17c0 1.65 1.35 3 3 3h17c1.65 0 3-1.35 3-3V3c0-1.65-1.35-3-3-3z"/></svg><svg viewBox="0 0 27 23" id="checkbox-on" xmlns="http://www.w3.org/2000/svg"><path fill="#b8b8b8" d="M7.285 7.486l-2.829 2.829 7.783 7.783L26.171 4.166l-2.828-2.829-11.104 11.102z"/><path fill="#b8b8b8" d="M21 20c0 .542-.458 1-1 1H3c-.542 0-1-.458-1-1V3c0-.542.458-1 1-1h16.908L21.493.415A2.96 2.96 0 0020 0H3C1.35 0 0 1.35 0 3v17c0 1.65 1.35 3 3 3h17c1.65 0 3-1.35 3-3v-9.829l-2 2V20z"/></svg><svg viewBox="0 0 27 23" id="checkbox-on_disable" xmlns="http://www.w3.org/2000/svg"><path fill="#ededed" d="M7.285 7.486l-2.829 2.829 7.783 7.783L26.171 4.166l-2.828-2.829-11.104 11.102z"/><path fill="#ededed" d="M21 20c0 .542-.458 1-1 1H3c-.542 0-1-.458-1-1V3c0-.542.458-1 1-1h16.908L21.493.415A2.96 2.96 0 0020 0H3C1.35 0 0 1.35 0 3v17c0 1.65 1.35 3 3 3h17c1.65 0 3-1.35 3-3v-9.829l-2 2V20z"/></svg><svg viewBox="0 0 27 23" id="checkbox-on_hover" xmlns="http://www.w3.org/2000/svg"><path fill="#4d4d4d" d="M7.285 7.486l-2.829 2.829 7.783 7.783L26.171 4.166l-2.828-2.829-11.104 11.102z"/><path fill="#4d4d4d" d="M21 20c0 .542-.458 1-1 1H3c-.542 0-1-.458-1-1V3c0-.542.458-1 1-1h16.908L21.493.415A2.96 2.96 0 0020 0H3C1.35 0 0 1.35 0 3v17c0 1.65 1.35 3 3 3h17c1.65 0 3-1.35 3-3v-9.829l-2 2V20z"/></svg><svg viewBox="0 0 25 25" id="radio-off" xmlns="http://www.w3.org/2000/svg"><path fill="#b8b8b8" d="M12.5 4c4.687 0 8.5 3.813 8.5 8.5 0 4.687-3.813 8.5-8.5 8.5C7.813 21 4 17.187 4 12.5 4 7.813 7.813 4 12.5 4m0-4C5.597 0 0 5.597 0 12.5S5.597 25 12.5 25 25 19.403 25 12.5 19.403 0 12.5 0z"/></svg><svg viewBox="0 0 25 25" id="radio-off_hover" xmlns="http://www.w3.org/2000/svg"><path fill="#4d4d4d" d="M12.5 4c4.687 0 8.5 3.813 8.5 8.5 0 4.687-3.813 8.5-8.5 8.5C7.813 21 4 17.187 4 12.5 4 7.813 7.813 4 12.5 4m0-4C5.597 0 0 5.597 0 12.5S5.597 25 12.5 25 25 19.403 25 12.5 19.403 0 12.5 0z"/></svg><svg viewBox="0 0 25 25" id="radio-off_disable" xmlns="http://www.w3.org/2000/svg"><path fill="#ededed" d="M12.5 4c4.687 0 8.5 3.813 8.5 8.5 0 4.687-3.813 8.5-8.5 8.5C7.813 21 4 17.187 4 12.5 4 7.813 7.813 4 12.5 4m0-4C5.597 0 0 5.597 0 12.5S5.597 25 12.5 25 25 19.403 25 12.5 19.403 0 12.5 0z"/></svg><svg viewBox="0 0 25 25" id="radio-on" xmlns="http://www.w3.org/2000/svg"><path fill="#b8b8b8" d="M12.5 4c4.687 0 8.5 3.813 8.5 8.5 0 4.687-3.813 8.5-8.5 8.5C7.813 21 4 17.187 4 12.5 4 7.813 7.813 4 12.5 4m0-4C5.597 0 0 5.597 0 12.5S5.597 25 12.5 25 25 19.403 25 12.5 19.403 0 12.5 0z"/><circle fill="#b8b8b8" cx="12.5" cy="12.5" r="4.5"/></svg><svg viewBox="0 0 25 25" id="radio-on_hover" xmlns="http://www.w3.org/2000/svg"><path fill="#4d4d4d" d="M12.5 4c4.687 0 8.5 3.813 8.5 8.5 0 4.687-3.813 8.5-8.5 8.5C7.813 21 4 17.187 4 12.5 4 7.813 7.813 4 12.5 4m0-4C5.597 0 0 5.597 0 12.5S5.597 25 12.5 25 25 19.403 25 12.5 19.403 0 12.5 0z"/><circle fill="#4d4d4d" cx="12.5" cy="12.5" r="4.5"/></svg><svg viewBox="0 0 25 25" id="radio-on_disable" xmlns="http://www.w3.org/2000/svg"><path fill="#ededed" d="M12.5 4c4.687 0 8.5 3.813 8.5 8.5 0 4.687-3.813 8.5-8.5 8.5C7.813 21 4 17.187 4 12.5 4 7.813 7.813 4 12.5 4m0-4C5.597 0 0 5.597 0 12.5S5.597 25 12.5 25 25 19.403 25 12.5 19.403 0 12.5 0z"/><circle fill="#ededed" cx="12.5" cy="12.5" r="4.5"/></svg><svg viewBox="0 0 21 21" id="close-cross" xmlns="http://www.w3.org/2000/svg"><path fill="#fecccd" d="M13.328 10.5l7.371-7.371a1.003 1.003 0 000-1.414L19.285.3a1.003 1.003 0 00-1.414 0L10.5 7.672 3.129.301a1.003 1.003 0 00-1.414 0L.301 1.715a1.003 1.003 0 000 1.414L7.672 10.5.301 17.871a1.003 1.003 0 000 1.414l1.415 1.414a1.003 1.003 0 001.414 0l7.371-7.371 7.371 7.371a1.003 1.003 0 001.414 0l1.414-1.414a1.003 1.003 0 000-1.414L13.328 10.5z"/></svg><svg viewBox="0 0 21 21" id="close-cross_hover" xmlns="http://www.w3.org/2000/svg"><path fill="#fb565a" d="M13.328 10.5l7.371-7.371a1.003 1.003 0 000-1.414L19.285.3a1.003 1.003 0 00-1.414 0L10.5 7.672 3.129.301a1.003 1.003 0 00-1.414 0L.301 1.715a1.003 1.003 0 000 1.414L7.672 10.5.301 17.871a1.003 1.003 0 000 1.414l1.415 1.414a1.003 1.003 0 001.414 0l7.371-7.371 7.371 7.371a1.003 1.003 0 001.414 0l1.414-1.414a1.003 1.003 0 000-1.414L13.328 10.5z"/></svg><svg viewBox="0 0 21 21" id="close-cross_active" xmlns="http://www.w3.org/2000/svg"><path fill="#fee" d="M13.328 10.5l7.371-7.371a1.003 1.003 0 000-1.414L19.285.3a1.003 1.003 0 00-1.414 0L10.5 7.672 3.129.301a1.003 1.003 0 00-1.414 0L.301 1.715a1.003 1.003 0 000 1.414L7.672 10.5.301 17.871a1.003 1.003 0 000 1.414l1.415 1.414a1.003 1.003 0 001.414 0l7.371-7.371 7.371 7.371a1.003 1.003 0 001.414 0l1.414-1.414a1.003 1.003 0 000-1.414L13.328 10.5z"/></svg><svg viewBox="0 0 11 10" id="icon-down-dir" xmlns="http://www.w3.org/2000/svg"><path fill="#ededed" d="M5.5 10L0 0h11"/></svg><svg viewBox="0 0 11 10" id="icon-down-dir_hover" xmlns="http://www.w3.org/2000/svg"><path fill="#a6a6a6" d="M5.5 10L0 0h11"/></svg><svg viewBox="0 0 11 10" id="icon-down-dir_active" xmlns="http://www.w3.org/2000/svg"><path fill="#231f20" d="M5.5 10L0 0h11"/></svg><svg viewBox="0 0 11 10" id="icon-up-dir" xmlns="http://www.w3.org/2000/svg"><path fill="#ededed" d="M5.5 0L0 10h11z"/></svg><svg viewBox="0 0 11 10" id="icon-up-dir_hover" xmlns="http://www.w3.org/2000/svg"><path fill="#a6a6a6" d="M5.5 0L0 10h11z"/></svg><svg viewBox="0 0 11 10" id="icon-up-dir_active" xmlns="http://www.w3.org/2000/svg"><path fill="#231f20" d="M5.5 0L0 10h11z"/></svg><svg viewBox="0 0 20 23" id="filter-button" xmlns="http://www.w3.org/2000/svg"><path opacity=".3" fill="#ABABAB" d="M10 20C4.477 20 0 15.522 0 10v2c0 5.522 4.477 10 10 10 5.522 0 10-4.478 10-10v-2c0 5.522-4.478 10-10 10z"/><circle fill="#FFF" cx="10" cy="10" r="10"/><circle fill="#ABABAB" cx="10" cy="10" r="2"/></svg><svg viewBox="0 0 12 22" id="fb-icon" xmlns="http://www.w3.org/2000/svg"><path fill="#FFF" d="M12 4V0H8a4 4 0 00-4 4v4H0v4h4v10h4V12h4V8H8V4h4z"/></svg><svg viewBox="0 0 12 22" id="fb-icon_active" xmlns="http://www.w3.org/2000/svg"><path fill="#e37376" d="M12 4V0H8a4 4 0 00-4 4v4H0v4h4v10h4V12h4V8H8V4h4z"/></svg><svg viewBox="0 0 21 21" id="insta-icon" xmlns="http://www.w3.org/2000/svg"><path fill="#FFF" d="M18 0H3C1.35 0 0 1.35 0 3v15c0 1.65 1.35 3 3 3h15c1.65 0 3-1.35 3-3V3c0-1.65-1.35-3-3-3zm-7.5 7c1.93 0 3.5 1.57 3.5 3.5S12.43 14 10.5 14 7 12.43 7 10.5 8.57 7 10.5 7zM18 18H3V9h1.181A6.504 6.504 0 004 10.5a6.5 6.5 0 1013 0 6.45 6.45 0 00-.181-1.5H18v9zm0-11h-4V3h4v4z"/></svg><svg viewBox="0 0 21 21" id="insta-icon_active" xmlns="http://www.w3.org/2000/svg"><path fill="#e37376" d="M18 0H3C1.35 0 0 1.35 0 3v15c0 1.65 1.35 3 3 3h15c1.65 0 3-1.35 3-3V3c0-1.65-1.35-3-3-3zm-7.5 7c1.93 0 3.5 1.57 3.5 3.5S12.43 14 10.5 14 7 12.43 7 10.5 8.57 7 10.5 7zM18 18H3V9h1.181A6.504 6.504 0 004 10.5a6.5 6.5 0 1013 0 6.45 6.45 0 00-.181-1.5H18v9zm0-11h-4V3h4v4z"/></svg><svg viewBox="0 0 26 15" id="vk-icon" xmlns="http://www.w3.org/2000/svg"><path fill="#FFF" d="M16.138 11.51c.956-.309 2.18 2.04 3.483 2.939.978.681 1.727.534 1.727.534l3.473-.05s1.815-.112.957-1.554c-.071-.12-.503-1.069-2.585-3.022-2.177-2.043-1.882-1.712.739-5.244 1.597-2.153 2.236-3.468 2.036-4.028-.192-.539-1.365-.399-1.365-.399L20.69.713c-.381.001-.704.119-.851.515-.003.004-.621 1.666-1.445 3.079-1.741 2.989-2.436 3.148-2.724 2.961-.661-.433-.494-1.737-.494-2.664 0-2.897.432-4.105-.846-4.417-.427-.104-.739-.172-1.828-.182-1.392-.021-2.574 0-3.244.329-.445.223-.786.712-.579.74.26.035.843.16 1.155.586.401.552.389 1.789.389 1.789s.229 3.411-.54 3.834c-.528.29-1.25-.302-2.803-3.016-.793-1.388-1.392-2.922-1.392-2.922s-.116-.285-.326-.441c-.25-.185-.6-.244-.6-.244L.848.684S.29.7.085.946c-.182.218-.015.668-.015.668s2.909 6.881 6.203 10.347c3.02 3.182 6.452 2.971 6.452 2.971h1.555s.469-.054.709-.312c.224-.24.214-.691.214-.691s-.031-2.109.935-2.419z"/></svg><svg viewBox="0 0 26 15" id="vk-icon_active" xmlns="http://www.w3.org/2000/svg"><path fill="#e37376" d="M16.138 11.51c.956-.309 2.18 2.04 3.483 2.939.978.681 1.727.534 1.727.534l3.473-.05s1.815-.112.957-1.554c-.071-.12-.503-1.069-2.585-3.022-2.177-2.043-1.882-1.712.739-5.244 1.597-2.153 2.236-3.468 2.036-4.028-.192-.539-1.365-.399-1.365-.399L20.69.713c-.381.001-.704.119-.851.515-.003.004-.621 1.666-1.445 3.079-1.741 2.989-2.436 3.148-2.724 2.961-.661-.433-.494-1.737-.494-2.664 0-2.897.432-4.105-.846-4.417-.427-.104-.739-.172-1.828-.182-1.392-.021-2.574 0-3.244.329-.445.223-.786.712-.579.74.26.035.843.16 1.155.586.401.552.389 1.789.389 1.789s.229 3.411-.54 3.834c-.528.29-1.25-.302-2.803-3.016-.793-1.388-1.392-2.922-1.392-2.922s-.116-.285-.326-.441c-.25-.185-.6-.244-.6-.244L.848.684S.29.7.085.946c-.182.218-.015.668-.015.668s2.909 6.881 6.203 10.347c3.02 3.182 6.452 2.971 6.452 2.971h1.555s.469-.054.709-.312c.224-.24.214-.691.214-.691s-.031-2.109.935-2.419z"/></svg></svg>